<?xml version="1.0" encoding="UTF-8"?>
<svg id="Layer_2" data-name="Layer 2" xmlns="http://www.w3.org/2000/svg" xmlns:xlink="http://www.w3.org/1999/xlink" viewBox="0 0 142.24 142.24">
  <defs>
    <style>
      .cls-1 {
        fill: none;
      }

      .cls-2 {
        fill: #5a6fb3;
      }

      .cls-3 {
        fill: #1d3a78;
      }

      .cls-4 {
        clip-path: url(#clippath);
      }
    </style>
    <clipPath id="clippath">
      <rect class="cls-1" width="142.24" height="142.24"/>
    </clipPath>
  </defs>
  <g id="Layer_1-2" data-name="Layer 1">
    <g class="cls-4">
      <g>
        <path class="cls-3" d="M70.9,69.42c-18.24,0-32.25-12.26-32.25-34.55C38.65,14.7,52.94.57,70.9.57c12.08,0,25.57,4.63,25.57,14.46,0,4.11-2.9,6.88-7.23,6.88-2.48,0-4.16-1.34-5.94-2.77-2.37-1.89-6.31-4.05-11.76-4.03-9.25.03-16.85,7.26-17.29,19.63-.91,25.68,32.02,24.39,33.89,7.59,0,0-7.7.33-10.27.38-4.83.09-8.58-2.45-8.58-7.02s3.61-7.52,8.58-7.52h15.81c3.83,0,9.67,1.69,9.67,9.73,0,20.67-15.33,31.52-32.43,31.52Z"/>
        <g>
          <polygon class="cls-2" points="77.73 106.23 65.49 106.23 64.88 116.9 78.34 116.9 77.73 106.23"/>
          <polygon class="cls-2" points="76.95 90.85 66.26 90.85 65.8 98.88 77.41 98.88 76.95 90.85"/>
          <polygon class="cls-2" points="64.45 125.59 63.59 140.45 79.62 140.45 78.77 125.59 64.45 125.59"/>
        </g>
        <path class="cls-3" d="M52.63,74.65H16.22c-5.59,0-8.92,3.03-8.92,8.1s3.5,8.1,8.92,8.1h9.26c-2.44,9.53-8.08,31.86-9.73,38.31-4.15,14.38,13.71,18.24,16.69,4.82,1.4-6.34,7.18-32.15,9.61-43.13h10.59c5.42,0,8.92-3.18,8.92-8.1s-3.33-8.1-8.92-8.1Z"/>
        <path class="cls-3" d="M90.58,74.65h36.41c5.59,0,8.92,3.03,8.92,8.1s-3.5,8.1-8.92,8.1h-9.26c2.44,9.53,8.08,31.86,9.73,38.31,4.15,14.38-13.71,18.24-16.69,4.82-1.4-6.34-7.18-32.15-9.61-43.13h-10.59c-5.42,0-8.92-3.18-8.92-8.1s3.33-8.1,8.92-8.1Z"/>
      </g>
    </g>
  </g>
</svg>