<?xml version="1.0" encoding="UTF-8"?>
<svg id="Layer_2" data-name="Layer 2" xmlns="http://www.w3.org/2000/svg" viewBox="0 0 147.71 116.43">
  <defs>
    <style>
      .cls-1 {
        fill: #5a6fb3;
      }

      .cls-2 {
        fill: #1d3a78;
      }
    </style>
  </defs>
  <g id="Layer_1-2" data-name="Layer 1">
    <g>
      <path class="cls-2" d="M25.48,54.4C11.07,54.4,0,44.72,0,27.1,0,11.17,11.3,0,25.48,0c9.54,0,20.2,3.66,20.2,11.42,0,3.25-2.29,5.44-5.71,5.44-1.96,0-3.29-1.06-4.7-2.19-1.87-1.49-4.99-3.2-9.29-3.18-7.31.02-13.31,5.74-13.66,15.51-.72,20.29,25.3,19.27,26.78,6,0,0-6.09.26-8.12.3-3.82.07-6.78-1.93-6.78-5.54s2.85-5.94,6.78-5.94h12.49c3.03,0,7.64,1.33,7.64,7.69,0,16.33-12.12,24.91-25.63,24.91Z"/>
      <path class="cls-1" d="M94.4,53.84c-4.1,0-5.36-2.88-6.38-6.08l-1.29-4.3h-17.81l-1.29,4.29c-1.03,3.21-2.29,6.09-6.39,6.09-3.54,0-5.92-2.13-5.92-5.29,0-1.85.24-3.29,1.7-7.43,0,0,8.2-22.15,10.87-29.56,2.03-5.64,3.87-11,9.86-11s7.97,5.36,10,11c2.67,7.41,10.87,29.55,10.87,29.55,1.47,4.14,1.7,5.58,1.7,7.43,0,3.17-2.38,5.29-5.92,5.29ZM83.08,31.57l-5.07-16.01-5.44,16.01h10.51Z"/>
      <path class="cls-1" d="M126.56,53.84c-13.2,0-21.09-8.38-21.09-22.42V7.8c0-4.16,2.41-7.24,6.28-7.24s6.28,3.08,6.28,7.24v23.61c0,10.35,8.05,10.1,8.52,10.1,5.22-.06,8.6-4.02,8.6-10.1V7.8c0-4.16,2.41-7.24,6.28-7.24s6.28,3.08,6.28,7.24v23.61c0,13.83-8.11,22.42-21.16,22.42Z"/>
      <path class="cls-1" d="M113.03,116.43c-3.12,0-6.28-2.2-6.28-6.4v-41.14c0-4.2,3.16-6.4,6.28-6.4h26.3c3.82,0,6.68,2.34,6.68,5.96s-2.75,5.96-6.68,5.96h-20.02v8.43h19.02c3.88,0,6.68,2.28,6.68,5.96s-2.81,5.96-6.68,5.96h-19.02v9.74h20.45c3.93,0,6.68,2.23,6.68,5.96s-2.87,5.96-6.68,5.96h-26.73Z"/>
      <g>
        <polygon class="cls-1" points="55.04 87.44 45.38 87.44 44.89 95.87 55.53 95.87 55.04 87.44"/>
        <polygon class="cls-1" points="54.43 75.28 45.99 75.28 45.62 81.63 54.8 81.63 54.43 75.28"/>
        <polygon class="cls-1" points="44.55 102.73 43.88 114.48 56.55 114.48 55.87 102.73 44.55 102.73"/>
      </g>
      <path class="cls-2" d="M36.8,62.48H8.03c-4.41,0-7.05,2.39-7.05,6.4s2.77,6.4,7.05,6.4h7.31c-1.93,7.53-6.39,25.17-7.69,30.27-3.28,11.36,10.83,14.41,13.19,3.81,1.11-5.01,5.68-25.4,7.59-34.08h8.36c4.28,0,7.05-2.51,7.05-6.4s-2.63-6.4-7.05-6.4Z"/>
      <path class="cls-2" d="M63.62,62.48h28.77c4.41,0,7.05,2.39,7.05,6.4s-2.77,6.4-7.05,6.4h-7.31c1.93,7.53,6.39,25.17,7.69,30.27,3.28,11.36-10.83,14.41-13.19,3.81-1.11-5.01-5.68-25.4-7.59-34.08h-8.36c-4.28,0-7.05-2.51-7.05-6.4s2.63-6.4,7.05-6.4Z"/>
    </g>
  </g>
</svg>